<?xml version="1.0" encoding="iso-8859-1"?>
<!-- Generator: Adobe Illustrator 19.0.0, SVG Export Plug-In . SVG Version: 6.00 Build 0)  -->
<svg version="1.1" id="Capa_1" xmlns="http://www.w3.org/2000/svg" xmlns:xlink="http://www.w3.org/1999/xlink" x="0px" y="0px"
	 viewBox="0 0 512 512" style="enable-background:new 0 0 512 512;" xml:space="preserve">
<path style="fill:#72D8FF;" d="M10,396V116c0-22.091,17.909-40,40-40h412c22.091,0,40,17.909,40,40v280c0,22.091-17.909,40-40,40H50
	C27.909,436,10,418.091,10,396z"/>
<path style="fill:#4DBAF6;" d="M50,436h412c11.344,0,21.576-4.73,28.856-12.315L309.058,241.887l-106.456,0.34L21.144,423.685
	C28.424,431.27,38.656,436,50,436z"/>
<path style="fill:#ADE5FF;" d="M462,76H50c-3.93,0-7.724,0.577-11.312,1.633l166.34,166.34c28.151,28.152,73.794,28.152,101.945,0
	l166.34-166.34C469.724,76.577,465.93,76,462,76z"/>
<path d="M50,446h412c27.57,0,50-22.43,50-50V116c0-27.57-22.43-50-50-50H50C22.43,66,0,88.43,0,116v280C0,423.57,22.43,446,50,446z
	 M492,116v280c0,4.312-0.922,8.411-2.567,12.12L323.201,241.886L475.017,90.071c0.241-0.241,0.466-0.491,0.678-0.75
	C485.366,94.307,492,104.39,492,116z M299.902,236.901c-24.208,24.207-63.596,24.207-87.804,0L61.197,86h389.606l-34,34H241.254
	c-5.523,0-10,4.478-10,10s4.477,10,10,10h155.549l-28,28h-73.976c-5.523,0-10,4.478-10,10s4.477,10,10,10h53.976L299.902,236.901z
	 M20,116c0-11.61,6.634-21.693,16.306-26.678c0.211,0.258,0.437,0.509,0.678,0.75L188.8,241.887l-63.146,63.146
	c-3.905,3.905-3.905,10.237,0,14.143s10.237,3.905,14.143,0l63.374-63.375c30.431,25.635,75.228,25.635,105.66,0l166.873,166.874
	C471.592,424.794,466.935,426,462,426H50c-4.935,0-9.592-1.206-13.703-3.326l47.629-47.629c3.905-3.905,3.905-10.237,0-14.142
	c-1.953-1.953-4.512-2.929-7.071-2.929s-5.119,0.977-7.071,2.929L22.567,408.12C20.922,404.411,20,400.312,20,396V116z"/>
<path d="M200.33,120c-2.63,0-5.21,1.07-7.07,2.931c-1.86,1.859-2.93,4.439-2.93,7.069c0,2.63,1.07,5.21,2.93,7.07
	c1.86,1.86,4.44,2.93,7.07,2.93c2.64,0,5.21-1.069,7.07-2.93c1.87-1.86,2.93-4.44,2.93-7.07s-1.06-5.21-2.93-7.069
	C205.54,121.07,202.97,120,200.33,120z"/>
<path d="M105.88,348.94c2.64,0,5.22-1.06,7.08-2.93c1.86-1.86,2.92-4.43,2.92-7.07c0-2.63-1.06-5.21-2.92-7.07
	c-1.86-1.86-4.44-2.93-7.08-2.93c-2.63,0-5.2,1.07-7.07,2.93c-1.86,1.86-2.92,4.44-2.92,7.07c0,2.64,1.06,5.21,2.92,7.07
	C100.68,347.88,103.25,348.94,105.88,348.94z"/>
<g>
</g>
<g>
</g>
<g>
</g>
<g>
</g>
<g>
</g>
<g>
</g>
<g>
</g>
<g>
</g>
<g>
</g>
<g>
</g>
<g>
</g>
<g>
</g>
<g>
</g>
<g>
</g>
<g>
</g>
</svg>
